<svg width="55" height="38" viewBox="0 0 55 38" fill="none" xmlns="http://www.w3.org/2000/svg">
<path d="M30.4593 2.66585L30.6441 2.20127L30.4593 2.66585ZM50.7558 19.8958L51.192 19.6515L50.7558 19.8958ZM48.7951 37.1299C48.8668 37.3965 49.1411 37.5546 49.4078 37.4828L53.7533 36.3139C54.02 36.2421 54.178 35.9678 54.1062 35.7011C54.0345 35.4345 53.7602 35.2765 53.4935 35.3482L49.6308 36.3873L48.5918 32.5246C48.52 32.2579 48.2457 32.0999 47.979 32.1716C47.7124 32.2434 47.5544 32.5177 47.6261 32.7844L48.7951 37.1299ZM1.27701 7.54405C4.14818 5.63329 8.77069 3.47424 14.0017 2.3243C19.2331 1.17426 25.0277 1.04312 30.2745 3.13044L30.6441 2.20127C25.1516 0.0161817 19.1391 0.171062 13.787 1.34762C8.43441 2.52429 3.69691 4.73241 0.722986 6.71156L1.27701 7.54405ZM30.2745 3.13044C33.389 4.36948 35.1564 6.39201 36.0126 8.59534C36.8745 10.813 36.8257 13.2485 36.2365 15.3038C35.6414 17.3796 34.5277 18.9651 33.3703 19.5806C32.8085 19.8793 32.252 19.9444 31.7162 19.7581C31.1692 19.5679 30.5727 19.091 29.9972 18.1657L29.1481 18.6938C29.8 19.7421 30.5569 20.4138 31.3878 20.7026C32.2298 20.9954 33.0758 20.8698 33.8398 20.4635C35.3339 19.669 36.565 17.7868 37.1978 15.5794C37.8365 13.3514 37.8988 10.688 36.9447 8.2331C35.9851 5.76386 34.0096 3.54016 30.6441 2.20127L30.2745 3.13044ZM29.9972 18.1657C29.4246 17.245 29.2412 16.4591 29.3079 15.8082C29.3741 15.1628 29.6924 14.5877 30.2444 14.0926C31.3709 13.0823 33.4293 12.4514 35.9289 12.4141C40.9139 12.3399 47.233 14.6287 50.3195 20.1401L51.192 19.6515C47.8744 13.7275 41.147 11.3363 35.914 11.4142C33.3046 11.4531 30.9611 12.1065 29.5767 13.3481C28.8733 13.979 28.4089 14.7718 28.3131 15.7062C28.2179 16.6351 28.4932 17.6409 29.1481 18.6938L29.9972 18.1657ZM50.3195 20.1401C52.7247 24.4347 52.8224 27.722 52.1203 30.334C51.404 32.9987 49.8714 34.968 48.8446 36.7504L49.7112 37.2496C50.6549 35.6111 52.3244 33.4266 53.086 30.5936C53.8618 27.7078 53.7132 24.1533 51.192 19.6515L50.3195 20.1401Z" fill="#139576"/>
</svg>
